# xmcd
#
# Track frame offsets: 
#        150
#        28542
#        54138
#        89447
#
# Disc length: 2294 seconds
#
# Revision: 0
# Processed by: cddbd v1.5.2PL0 Copyright (c) Steve Scherf et al.
# Submitted via: ExactAudioCopyFreeDBPlugin 1.0
#
DISCID=2408f404
DTITLE=Hawkeyes - Last Light Of Future Failure
DYEAR=2019
DGENRE=Spacerock
TTITLE0=The Lickening
TTITLE1=Look At 'Em Scramble
TTITLE2=Nude Karate
TTITLE3=Full Of Secrets
EXTD=
EXTT0=
EXTT1=
EXTT2=
EXTT3=
PLAYORDER=
